# xmcd
#
# Track frame offsets:
#	150
#	14921
#	29304
#	43672
#	58933
#	72261
#	87544
#	102804
#	116182
#	133175
#	146894
#	162455
#	177507
#	192179
#
# Disc length: 2773 seconds
#
# Revision: 1
# Processed by: cddbd v1.5.2PL0 Copyright (c) Steve Scherf et al.
# Submitted via: audiograbber 1.83.01
#
DISCID=dc0ad30e
DTITLE=Varius - 110% Country Hits
DYEAR=2010
DGENRE=Country
TTITLE0=Jonny Hill - Steh Auf Und Leb Dein Leben 
TTITLE1=Greyhounds - Country Songs and Honky Tonks 
TTITLE2=Joe Hodgkins Boss Band - Hilly Billy Western Willy 
TTITLE3=Linda Feller - Lebenslaenglich Liebe Pur 
TTITLE4=Country Roads - Trucker Sind Freunde 
TTITLE5=Bruce Low - Es Haengt Ein Pferdehalfter An Der Wand
TTITLE6=Gunter Gabriel - Truck Stop, Tom Astor Und Ich 
TTITLE7=Dagmar - Lass Mich Damit Bloss In Ruhe 
TTITLE8=Muck - Die Richtige Frau 
TTITLE9=Country Rose - Drunter Und Drueber 
TTITLE10=Max Zwo - Im Cowboyhimmel 
TTITLE11=Mike Herman and Booze Company - Hey Trucker 
TTITLE12=Hanna and Daana - Wenn Du Wieder Da Bist 
TTITLE13=Tex Harper - Auch Ein Trucker Hat Ein Herz 
EXTD=
EXTT0=
EXTT1=
EXTT2=
EXTT3=
EXTT4=
EXTT5=
EXTT6=
EXTT7=
EXTT8=
EXTT9=
EXTT10=
EXTT11=
EXTT12=
EXTT13=
PLAYORDER=
